<?xml version="1.0" encoding="utf-8"?>
<!-- Generator: Adobe Illustrator 28.0.0, SVG Export Plug-In . SVG Version: 6.00 Build 0)  -->
<svg version="1.1" id="Livello_1" xmlns="http://www.w3.org/2000/svg" xmlns:xlink="http://www.w3.org/1999/xlink" x="0px" y="0px"
	 viewBox="0 0 145.02 43.38" style="enable-background:new 0 0 145.02 43.38;" xml:space="preserve">
<style type="text/css">
	.st0{fill:#FFFFFF;}
	.st1{fill:#BDBCBC;}
	.st2{fill:#FFFFFF;stroke:#FFFFFF;stroke-width:2;stroke-linecap:round;stroke-miterlimit:10;}
	.st3{fill:#FFFFFF;stroke:#BDBCBC;stroke-width:2;stroke-linecap:round;stroke-miterlimit:10;}
</style>
<g>
	<path class="st0" d="M81.41,17.21v7.73c0,1.53-0.55,2.83-1.65,3.92l-0.02,0.02l2.49,2.6l-2.03,0.8l-2.16-2.25
		c-0.69,0.3-1.44,0.45-2.25,0.45c-1.56,0-2.89-0.54-3.97-1.62c-1.1-1.09-1.64-2.4-1.64-3.92v-7.74c0-1.53,0.55-2.83,1.64-3.92
		s2.42-1.63,3.97-1.63c1.55,0,2.88,0.54,3.97,1.62C80.87,14.38,81.41,15.68,81.41,17.21z M72.17,17.17v7.81
		c0,0.99,0.35,1.84,1.06,2.54c0.71,0.71,1.56,1.06,2.57,1.06c0.27,0,0.54-0.03,0.79-0.08l-1.68-1.75l2.03-0.8l1.47,1.53
		c0.67-0.69,1.02-1.52,1.02-2.5v-7.81c-0.01-1-0.37-1.84-1.07-2.54c-0.71-0.71-1.57-1.06-2.55-1.06c-1,0-1.86,0.35-2.57,1.05
		C72.52,15.33,72.17,16.18,72.17,17.17z"/>
	<path class="st0" d="M90.62,28.47c0.7,0,1.31-0.26,1.83-0.78c0.52-0.52,0.78-1.15,0.78-1.88c0-0.02,0-0.03,0-0.04v-8.36l1.99-0.87
		v9.27c0,1.3-0.46,2.4-1.37,3.31s-2.02,1.37-3.31,1.37s-2.4-0.46-3.33-1.37s-1.38-2.02-1.38-3.31v-8.4l1.99-0.87v9.23
		c0.02,0.77,0.28,1.41,0.8,1.92C89.16,28.21,89.82,28.47,90.62,28.47z"/>
	<path class="st0" d="M102.17,26.82c0,0.28,0.11,0.56,0.32,0.85c0.4,0.54,1.03,0.8,1.91,0.8c0.53,0,1-0.12,1.41-0.37l0.75,1.88
		c-0.65,0.34-1.37,0.51-2.16,0.51c-1.25,0-2.35-0.46-3.31-1.37c-0.65-0.66-0.97-1.43-0.97-2.29c0-0.03,0-0.07,0-0.1
		c0-1.55,0.79-2.64,2.38-3.29l5.06-2.09c0-0.79-0.26-1.45-0.78-1.99c-0.52-0.54-1.18-0.8-1.98-0.8c-0.7,0-1.31,0.26-1.84,0.78
		c-0.52,0.51-0.78,1.15-0.8,1.92v0.17l-1.99,0.88v-1.1c0-1.16,0.5-2.28,1.5-3.34c0.85-0.9,1.92-1.35,3.21-1.35s2.4,0.46,3.31,1.37
		s1.37,2.02,1.37,3.31v8.4l-1.99,0.87V23.5l-4.11,1.67C102.59,25.58,102.17,26.13,102.17,26.82z"/>
	<path class="st0" d="M114.49,30.49V12.54l1.99-0.87v10.21l5.51-5.34l1.89,0.87l-3.81,3.77c0.99,0.18,1.8,0.59,2.43,1.23
		c0.92,0.91,1.38,2.02,1.38,3.31v3.89l-1.99,0.87v-4.72c-0.02-0.76-0.28-1.4-0.8-1.92c-0.52-0.51-1.15-0.78-1.92-0.78
		c-0.73,0-1.37,0.26-1.91,0.78c-0.52,0.51-0.78,1.12-0.78,1.84v0.07v3.85L114.49,30.49z"/>
	<path class="st0" d="M133.57,28.47c0.7,0,1.31-0.26,1.84-0.78c0.51-0.51,0.78-1.15,0.8-1.92V25.6l1.99-0.88v1.1
		c0,1.16-0.5,2.28-1.49,3.34c-0.85,0.9-1.92,1.35-3.21,1.35s-2.4-0.46-3.31-1.37c-0.91-0.91-1.37-2.02-1.37-3.31v-4.58
		c0-1.3,0.46-2.4,1.37-3.31c0.91-0.91,2.02-1.37,3.31-1.37c1.25,0,2.35,0.46,3.33,1.37c0.92,0.86,1.38,1.97,1.38,3.31v1.17
		l-7.4,3.29c0,0.79,0.26,1.45,0.78,1.99C132.11,28.21,132.77,28.47,133.57,28.47z M133.42,18.56c-0.7,0-1.31,0.26-1.83,0.78
		c-0.52,0.52-0.78,1.15-0.78,1.88c0,0.02,0,0.03,0,0.04v2.24l5.39-2.4c-0.04-0.7-0.3-1.29-0.78-1.76
		C134.88,18.82,134.22,18.56,133.42,18.56z"/>
</g>
<g>
	<path class="st1" d="M42.05,30.49V12.54l1.99-0.62h3.65c1.54,0,2.84,0.55,3.91,1.64c1.09,1.1,1.63,2.43,1.63,3.97
		c0,1.56-0.54,2.88-1.62,3.97c-0.5,0.51-1.04,0.9-1.64,1.17l3.41,6.94l-2.01,0.87l-3.43-7.34c-0.08,0-0.17,0-0.26,0h-3.65v6.46
		L42.05,30.49z M44.04,13.91v7.25h3.69c0.99,0,1.83-0.35,2.54-1.06c0.71-0.71,1.06-1.56,1.06-2.57c0-0.99-0.35-1.84-1.06-2.55
		s-1.55-1.07-2.54-1.07H44.04z"/>
</g>
<polygon class="st1" points="56.73,28.83 66.83,28.83 67.7,26.84 56.73,26.82 "/>
<polygon class="st1" points="65.97,20.95 59.98,20.94 61.31,19.62 59.89,18.2 56.14,21.96 59.87,25.68 61.28,24.27 59.84,22.83 
	65.1,22.94 "/>
<polygon class="st1" points="56.67,16.75 66.77,16.75 67.65,14.76 56.67,14.74 "/>
<g>
	<path class="st2" d="M9,21.94H6"/>
	<path class="st2" d="M13.7,25.44v-7.1"/>
	<path class="st2" d="M18.4,35.74V8.04"/>
	<path class="st2" d="M23.1,29.64v-15.4"/>
	<path class="st2" d="M27.8,40.24V3.64"/>
	<path class="st2" d="M32.5,35.44v-27"/>
	<path class="st2" d="M37.2,29.64v-15.4"/>
</g>
<g>
	<path class="st3" d="M10.5,23.15h-3"/>
	<path class="st3" d="M15.2,26.65v-7.1"/>
	<path class="st3" d="M19.9,36.95V9.25"/>
	<path class="st3" d="M24.6,30.85v-15.4"/>
	<path class="st3" d="M29.3,41.45V4.85"/>
	<path class="st3" d="M34,36.65v-27"/>
	<path class="st3" d="M38.7,30.85v-15.4"/>
</g>
</svg>
